<svg width="315" height="211" viewBox="0 0 315 211" fill="none" xmlns="http://www.w3.org/2000/svg">
<g clip-path="url(#clip0)">
<path d="M163 116.7C162.2 116.8 161.4 116.3 161.3 115.5C161.4 116 161.5 116.5 161.6 117C161.7 117.8 161.2 118.6 160.4 118.7C159.6 118.8 158.8 118.3 158.7 117.5C158.6 117 158.5 116.5 158.4 116C158.5 116.8 158 117.6 157.2 117.7C156.4 117.8 155.6 117.3 155.5 116.5C155.4 115.5 155.1 114.6 154.9 113.7C154.7 112.8 154.5 111.8 154.2 110.9C152.8 105.4 150.7 100.1 147.7 95.6C144.7 91.1 140.6 87.7 135.8 85.3C131 82.9 125.4 81.6 119.7 80.8C115 80.2 110.2 79.9 105.4 79.8L106.5 70.8C111.3 70.9 116 71.2 120.9 71.9C124.1 72.3 127.2 72.9 130.4 73.8C133.6 74.7 136.7 75.8 139.8 77.3C145.9 80.3 151.4 84.9 155.1 90.6C158.9 96.2 161.3 102.5 162.9 108.7C163.2 109.7 163.4 110.8 163.6 111.8C163.8 112.8 164.1 113.9 164.2 114.9C164.3 115.7 163.8 116.6 163 116.7Z" fill="#505050"/>
<path d="M135.7 85.3C140.5 87.7 144.6 91.1 147.6 95.6C149.7 98.6 151.3 102 152.5 105.6L152.8 105.7C149.4 87.6 139.4 78.3 130.3 73.7C127.2 72.9 124 72.3 120.9 71.8C117.9 71.4 115 71.1 112.1 71L109.1 79.9C112.7 80.1 116.2 80.3 119.7 80.8C125.3 81.6 130.8 82.9 135.7 85.3Z" fill="#424242"/>
<path d="M36 178.6L4.89995 187.1C-2.40005 189.1 -1.30005 197.8 6.29995 198.6L92.7 207.3C135.4 211.6 178.6 211.4 221.2 206.6L302.4 197.5C310.4 196.6 310.8 187.2 302.9 185.8L298.7 185.1C291.7 183.9 290.9 175.9 297.6 173.8L310.2 169.9C317.2 167.7 316 159.3 308.6 158.5L270 154.2L204 146.4C170.7 142.5 136.9 142.8 103.7 147.3L37.9 156.3C30.7 157.3 29.7 165.4 36.4 167.6C42.6 169.6 42.3 176.9 36 178.6Z" fill="#E0E0E0"/>
<path d="M110.958 127.527C110.963 127.085 108.281 126.696 104.968 126.659C101.655 126.621 98.9645 126.948 98.9595 127.39C98.9544 127.832 101.636 128.221 104.95 128.258C108.263 128.296 110.953 127.969 110.958 127.527Z" fill="#D2D2D2"/>
<path d="M58.5789 135.878C59.0187 135.835 59.1177 133.127 58.8 129.829C58.4824 126.53 57.8683 123.89 57.4285 123.933C56.9887 123.975 56.8897 126.683 57.2074 129.982C57.5251 133.28 58.1391 135.92 58.5789 135.878Z" fill="#D2D2D2"/>
<path d="M38.5 128.8C38.5 128.8 33.2 129.7 31.1 133.2C29.1 136.5 27.3 156.9 46.1 166.1C48.2 167.1 50.5 167.7 52.9 167.8C56.2 167.9 61.1 167.6 64 165.9C64 165.9 65.3 164 65.2 162.3C65.2 162.3 54.3 163 46.9 157.9C46.9 157.9 34.3 152.1 35.5 134.2C35.5 134.1 35.5 131.9 38.5 128.8Z" fill="#F2F2F2"/>
<path d="M46.9999 123.5C46.9999 123.5 39.8999 124.8 36.1999 131C30.8999 139.7 36.1999 156.8 48.1999 162.3L59.8999 152.2C59.8999 152.2 55.4999 144.7 57.5999 136.4" fill="url(#paint0_linear)"/>
<path d="M54.8 129.6C52.3 126.2 48 122.6 46.7 123.6C45.4 124.6 47.6 129.7 50.1 133.1C52.6 136.5 55.7 138.4 57 137.5C58.4 136.5 57.4 133 54.8 129.6Z" fill="url(#paint1_linear)"/>
<path d="M42.5 158.4C42.5 158.4 50.7 148.1 59.9 152.1C59.9 152.1 67.5 154.5 65.1 162.1C65.1 162.2 50.6 167.3 42.5 158.4Z" fill="#E6E6E6"/>
<path d="M52.1 139.9C52.1 139.9 53.8 141.4 57.1 140.7" stroke="#F2F2F2" stroke-width="3" stroke-miterlimit="10" stroke-linecap="round"/>
<path d="M52.5 144.7C52.5 144.7 54.4 145.9 57.5 144.8" stroke="#F2F2F2" stroke-width="3" stroke-miterlimit="10" stroke-linecap="round"/>
<path d="M43.1977 135.038C44.4864 133.749 44.6447 131.818 43.5513 130.725C42.4578 129.631 40.5267 129.789 39.238 131.078C37.9493 132.367 37.791 134.298 38.8844 135.391C39.9779 136.485 41.909 136.327 43.1977 135.038Z" fill="#F2F2F2"/>
<path d="M69.3 1.10003C70.2 1.60003 69.7 2.80003 68.7 2.90003C67.1 3.00003 65.5 3.00003 63.3 3.80003C60.9 4.70003 59.6 5.80003 58.2 6.80003C57.4 7.40003 56.2 6.70003 56.5 5.80003C57.3 3.50003 59.2 1.50003 61.8 0.600026C64.4 -0.399974 67.1 -0.0999738 69.3 1.10003Z" fill="#AAAAAA"/>
<path d="M129.6 57.7999C123.8 56.9999 112.2 55.2999 111.1 58.8999" stroke="#008575" stroke-width="4.5766" stroke-miterlimit="10" stroke-linecap="round"/>
<path d="M62 11.0999L44.5 9.09995C40.1 8.39995 36 11.2999 35.3 15.6999L20.9 102.5C20.2 106.9 23.1 111 27.5 111.7L79.2 120.6C83.6 121.3 87.7 118.4 88.4 114L102.8 27.2C103.5 22.9 66.4 11.7999 62 11.0999Z" fill="#CCCCCC"/>
<path d="M113.7 19.9999L62 11.0999C57.6 10.3999 53.5 13.3 52.8 17.7L38.4 104.5C37.7 108.9 40.6 113 45 113.7L96.7 122.6C101.1 123.3 105.2 120.4 105.9 116L120.3 29.1999C121 24.8999 118 20.7999 113.7 19.9999Z" fill="url(#paint2_linear)"/>
<path d="M54.4 84.3L83.8 89.2" stroke="#D2D2D2" stroke-width="4.793" stroke-miterlimit="10" stroke-linecap="round"/>
<path d="M52.9 93.3L90.8 99.6" stroke="#D2D2D2" stroke-width="4.793" stroke-miterlimit="10" stroke-linecap="round"/>
<path d="M51.4 102.2L73 105.8" stroke="#D2D2D2" stroke-width="4.793" stroke-miterlimit="10" stroke-linecap="round"/>
<path opacity="0.2" d="M69.3999 70C67.3999 75 60.7999 77.1 54.6999 74.6C48.5999 72.1 45.2999 66.1 47.3999 61C49.3999 56 55.9999 53.9 62.0999 56.4C68.0999 59 71.3999 65 69.3999 70Z" fill="url(#paint3_radial)"/>
<path d="M67.1 50.5999C65.2 50.2999 63.3 51.9999 62.9 54.4999C62.5 56.9999 63.7 59.1999 65.6 59.4999C67.5 59.7999 69.4 58.1 69.8 55.7C70.3 53.2 69 50.9999 67.1 50.5999Z" fill="#2F2F2F"/>
<path d="M68.8 54.7999C68.2 55.5999 67.2 55.6999 66.6 54.9999C66 54.2999 66 53.0999 66.6 52.2999C67.2 51.4999 68.2 51.3999 68.8 52.0999C69.4 52.7999 69.4 53.9999 68.8 54.7999Z" fill="url(#paint4_radial)"/>
<path opacity="0.5" d="M65.6 57.4999C65.2 57.9999 64.6 58.0999 64.3 57.6999C63.9 57.2999 63.9 56.4999 64.3 55.9999C64.7 55.4999 65.3 55.3999 65.6 55.7999C66 56.1999 66 56.9999 65.6 57.4999Z" fill="url(#paint5_radial)"/>
<path d="M108.2 56.7C106.3 56.4 104.4 58.1 104 60.6C103.6 63.1 104.8 65.3 106.7 65.6C108.6 65.9 110.5 64.2 110.9 61.8C111.3 59.3 110.1 57.1 108.2 56.7Z" fill="#2F2F2F"/>
<path d="M109.9 61C109.3 61.8 108.3 61.9 107.7 61.2C107.1 60.5 107.1 59.3 107.7 58.5C108.3 57.7 109.3 57.6 109.9 58.3C110.5 58.9 110.5 60.1 109.9 61Z" fill="url(#paint6_radial)"/>
<path opacity="0.5" d="M106.7 63.6C106.3 64.1 105.7 64.2 105.4 63.8C105 63.4 105 62.6 105.4 62.1C105.8 61.6 106.4 61.5 106.7 61.9C107 62.3 107 63.1 106.7 63.6Z" fill="url(#paint7_radial)"/>
<path opacity="0.5" d="M48.9 51.0999C49.5627 51.0999 50.0999 50.5627 50.0999 49.9C50.0999 49.2372 49.5627 48.7 48.9 48.7C48.2372 48.7 47.7 49.2372 47.7 49.9C47.7 50.5627 48.2372 51.0999 48.9 51.0999Z" fill="url(#paint8_radial)"/>
<path opacity="0.5" d="M104.1 76.5C104.928 76.5 105.6 75.8284 105.6 75C105.6 74.1716 104.928 73.5 104.1 73.5C103.272 73.5 102.6 74.1716 102.6 75C102.6 75.8284 103.272 76.5 104.1 76.5Z" fill="#FFC9A6"/>
<path opacity="0.5" d="M109.5 72.6C110.328 72.6 111 71.9284 111 71.1C111 70.2715 110.328 69.6 109.5 69.6C108.672 69.6 108 70.2715 108 71.1C108 71.9284 108.672 72.6 109.5 72.6Z" fill="#FFC9A6"/>
<path opacity="0.5" d="M109.6 77.9C110.428 77.9 111.1 77.2285 111.1 76.4C111.1 75.5716 110.428 74.9 109.6 74.9C108.772 74.9 108.1 75.5716 108.1 76.4C108.1 77.2285 108.772 77.9 109.6 77.9Z" fill="#FFC9A6"/>
<path opacity="0.5" d="M50.9 65.1C51.7285 65.1 52.4 64.4284 52.4 63.6C52.4 62.7715 51.7285 62.1 50.9 62.1C50.0716 62.1 49.4 62.7715 49.4 63.6C49.4 64.4284 50.0716 65.1 50.9 65.1Z" fill="#FFC9A6"/>
<path opacity="0.5" d="M51.2001 60C52.0285 60 52.7001 59.3284 52.7001 58.5C52.7001 57.6716 52.0285 57 51.2001 57C50.3716 57 49.7001 57.6716 49.7001 58.5C49.7001 59.3284 50.3716 60 51.2001 60Z" fill="#FFC9A6"/>
<path opacity="0.5" d="M56.3 63.4C57.1285 63.4 57.8 62.7285 57.8 61.9C57.8 61.0716 57.1285 60.4 56.3 60.4C55.4716 60.4 54.8 61.0716 54.8 61.9C54.8 62.7285 55.4716 63.4 56.3 63.4Z" fill="#FFC9A6"/>
<path d="M118.5 9.90004C117.5 9.80004 117.1 11 117.9 11.7C119.1 12.8 120.3 13.6 121.7 15.7C123.1 17.9 123.5 19.5 124 21.1C124.3 22.1 125.7 22.3 125.9 21.3C126.6 19 126.3 16.3 124.8 13.9C123.2 11.7 120.9 10.3 118.5 9.90004Z" fill="#AAAAAA"/>
<path d="M42.5 44.7999C36.7 43.9999 25.1 42.2999 24 45.8999" stroke="#008575" stroke-width="4.5766" stroke-miterlimit="10" stroke-linecap="round"/>
<path opacity="0.3" d="M44.9 48.2C42.9 60.7 49.7 72.3 60.1 74.1C70.6 75.9 80.7 67.2 82.8 54.7C84.8 42.2 78 30.6 67.6 28.8C57.2 27 46.9 35.7 44.9 48.2Z" fill="url(#paint9_linear)"/>
<path d="M81.9967 54.1336C83.8597 41.6242 76.8674 30.217 66.3792 28.6551C55.8909 27.0931 45.8782 35.9678 44.0153 48.4773C42.1523 60.9868 49.1445 72.3939 59.6328 73.9558C70.1211 75.5178 80.1338 66.6431 81.9967 54.1336Z" stroke="#008575" stroke-width="4.5766" stroke-miterlimit="10"/>
<path d="M82.4 53.8C84.2 52.8 86.3 52.3 88.5 52.7C90.4 53 92.1 53.9 93.4 55.3" stroke="#008575" stroke-width="4.5766" stroke-miterlimit="10"/>
<path opacity="0.3" d="M130.8 62.8C128.8 75.3 118.6 84 108.1 82.2C97.6 80.4 90.8001 68.8 92.9001 56.3C94.9001 43.8 105.1 35.1 115.6 36.9C126.1 38.7 132.9 50.3 130.8 62.8Z" fill="url(#paint10_linear)"/>
<path d="M131.667 62.5821C133.53 50.0726 126.537 38.6655 116.049 37.1036C105.561 35.5416 95.5483 44.4163 93.6853 56.9258C91.8224 69.4353 98.8146 80.8424 109.303 82.4043C119.791 83.9663 129.804 75.0916 131.667 62.5821Z" stroke="#008575" stroke-width="4.5766" stroke-miterlimit="10"/>
<path opacity="0.2" d="M96.6 77.7001C96.9 83.1001 102.5 87.2001 109 86.8001C115.5 86.4001 120.6 81.8001 120.3 76.3001C120 70.9001 114.4 66.8001 107.9 67.2001C101.4 67.6001 96.3 72.3001 96.6 77.7001Z" fill="url(#paint11_radial)"/>
<path d="M104.9 135.5C104.8 135.5 104.6 135.5 104.5 135.5C102 135.3 100.2 133.1 100.4 130.6C101.2 121.3 101.8 112.9 102.2 107.7C94.9 110.6 88.7 119 86.7 122.6C85.5 124.8 82.7 125.5 80.6 124.3C78.4 123.1 77.7001 120.3 78.9001 118.2C79.4001 117.4 90.7 97.7 107.2 97.7C108.4 97.7 109.6 98.2 110.5 99.1C111.4 100 111.8 101.2 111.7 102.5C111.7 102.6 110.8 115.7 109.5 131.4C109.2 133.7 107.2 135.5 104.9 135.5Z" fill="#505050"/>
<path d="M88.3 120.1C88.3 120.1 93.8 111.3 102.2 107.7C102.2 107.7 91.3 104.4 80.9 114.9L88.3 120.1Z" fill="#424242"/>
<path d="M105 128.2C101.7 128.2 99 127.8 99 127.4L98.9 134.9H110.9L111 127.6C111 128 108.3 128.3 105 128.2Z" fill="#E6E6E6"/>
<path d="M53.8 134.9C51.6 134.9 49.6 133.2 49.3 130.9C49 128.4 50.8 126.2 53.2 125.9C64 124.6 71.7 123.7 77 123C68.2 118.5 57.9 121.1 57.3 121.2C54.9 121.8 52.4 120.4 51.8 118C51.2 115.6 52.6 113.1 55 112.5C56 112.2 78.6 106.3 91.3 123.6C92.3 124.9 92.4 126.6 91.8 128.1C91.1 129.6 89.8 130.6 88.2 130.8C88.1 130.8 79.9 131.7 54.4 134.8C54.2 134.8 54 134.9 53.8 134.9Z" fill="#505050"/>
<path d="M39.1 64.3C36.5 68.4 34 72.5 32 76.7C29.5 81.9 27.5 87.2 26.8 92.6C26.1 97.9 26.7 103.3 28.7 108.2C30.7 113.2 33.9 117.9 37.7 122.1C38.3 122.8 39 123.5 39.6 124.2C40.3 124.9 40.9 125.6 41.6 126.3C42.2 126.9 42.2 127.8 41.6 128.4C41 129 40.1 129 39.5 128.5C39.9 128.8 40.2 129.2 40.6 129.5C41.2 130.1 41.2 131 40.7 131.6C40.1 132.2 39.2 132.2 38.6 131.6C38.2 131.2 37.9 130.9 37.5 130.6C38.1 131.2 38.1 132.1 37.6 132.7C37 133.3 36.1 133.3 35.4 132.7C34.6 132 33.9 131.2 33.2 130.4C32.5 129.6 31.7 128.9 31 128C26.7 123.2 22.9 117.7 20.4 111.4C17.8 105.1 17 98 17.9 91.3C18.3 87.9 19.2 84.7 20.2 81.6C21.3 78.5 22.6 75.5 24 72.7C26.2 68.3 28.6 64.2 31.1 60.2C31.1 60.2 37 58.8 39.1 64.3Z" fill="#505050"/>
<path d="M115.7 136C115.7 136.7 111.2 137.2 105.7 137.1C100.2 137 95.7 136.4 95.7 135.7C95.7 135 100.2 134.5 105.7 134.6C111.3 134.7 115.7 135.3 115.7 136Z" fill="url(#paint12_linear)"/>
<path d="M132.9 158.8L97.9 158.3C96.5 158.3 95.4 157.1 95.4 155.8V153.3L135.4 153.8V156.3C135.4 157.7 134.3 158.8 132.9 158.8Z" fill="#F2F2F2"/>
<path d="M125.6 143.7H123.1C119 143.6 115.6 140.2 115.7 136.1C115.7 136.8 111.2 137.3 105.7 137.2C100.2 137.1 95.7 136.5 95.7 135.8L95.5 153.3L135.5 153.8C135.6 148.3 131.1 143.7 125.6 143.7Z" fill="#28C2D1"/>
<path d="M125.6 143.7H123.1C119 143.6 115.6 140.2 115.7 136.1C115.7 136.8 111.2 137.3 105.7 137.2C100.2 137.1 95.7 136.5 95.7 135.8L95.5 153.3L125.5 153.7L125.6 143.7Z" fill="url(#paint13_linear)"/>
<path d="M125.6 143.7L125.5 153.7L135.5 153.8C135.6 148.3 131.1 143.7 125.6 143.7Z" fill="#E6E6E6"/>
<path d="M58.1 135.9L53.4 136.4C53.4 136.4 49.7 132.9 49.1 131.5C48.5 130 49.6 124.7 49.6 124.7L56.6 124C56.6 124 57.5 135.5 58.1 135.9Z" fill="#E6E6E6"/>
<path d="M103.6 149.2C105.809 149.2 107.6 147.409 107.6 145.2C107.6 142.991 105.809 141.2 103.6 141.2C101.391 141.2 99.6 142.991 99.6 145.2C99.6 147.409 101.391 149.2 103.6 149.2Z" fill="#F2F2F2"/>
<path d="M116.7 139.5L114 142.2" stroke="#F2F2F2" stroke-width="3" stroke-miterlimit="10" stroke-linecap="round"/>
<path d="M119.8 142.6L117 145.3" stroke="#F2F2F2" stroke-width="3" stroke-miterlimit="10" stroke-linecap="round"/>
<path d="M55.5001 130.1C55.8001 133 56.2001 135.1 56.5001 136L58.7001 135.8C58.2001 135.8 57.6001 133.2 57.2001 129.9C56.9001 126.6 57.0001 123.9 57.4001 123.8L55.2001 124C55.2001 125.1 55.2001 127.1 55.5001 130.1Z" fill="#E6E6E6"/>
<path d="M53.8 130.3C53.5 127.4 53.5 125.5 53.6 124.3L52 124.5C51.9 125.5 51.9 127.6 52.2 130.5C52.5 133.2 52.9 135.2 53.2 136.2C53.3 136.3 53.4 136.3 53.4 136.4L54.8 136.3C54.7 136 54.7 135.8 54.6 135.5C54.3 134.1 54 132.2 53.8 130.3Z" fill="#E6E6E6"/>
<path d="M50.2 124.6L46.4 125C46.6 127 48.3 130.5 50.2 133.1C50.4 133.4 50.7 133.7 50.9 134C50.7 133 50.6 131.9 50.5 130.7C50.1 127.7 50.1 125.8 50.2 124.6Z" fill="#E6E6E6"/>
<path d="M55.5 130.1C55.2 127.1 55.2 125.1 55.3 124.1L53.5 124.3C53.4 125.5 53.4 127.4 53.7 130.3C53.9 132.2 54.2 134.1 54.5 135.4C54.6 135.7 54.6 135.9 54.7 136.2L56.5 136C56.3 135.1 55.8 133 55.5 130.1Z" fill="#FED402"/>
<path d="M52.0001 124.5L50.2001 124.7C50.1001 125.9 50.1001 127.8 50.4001 130.7C50.5001 131.9 50.7001 133 50.8001 134C51.5001 134.9 52.3001 135.7 53.1001 136.3C52.8001 135.3 52.4001 133.3 52.1001 130.6C51.9001 127.5 51.9001 125.5 52.0001 124.5Z" fill="#FEF000"/>
<path d="M80.9999 73.4C80.5999 73.1 80.6 72.6 80.8 72.2C81.5 70.8 83.2999 67.4 86.3999 66.6C88.7999 66 89.1999 67.7 88.9999 69.1C88.8999 70.2 88.3999 71.5 87.6999 72.5C86.3999 74.1 82.6999 74.9 80.9999 73.4Z" fill="#2F2F2F"/>
<path d="M80.9999 73.4C80.5999 73.1 80.6 72.6 80.8 72.2C81.5 70.8 83.2999 67.4 86.3999 66.6C88.7999 66 89.1999 67.7 88.9999 69.1C88.8999 70.2 88.3999 71.5 87.6999 72.5C86.3999 74.1 82.6999 74.9 80.9999 73.4Z" fill="#2F2F2F"/>
<path d="M177.1 61.1L157.9 131.2L265.4 130.7L277.7 61.1H177.1Z" fill="#B3A388"/>
<path d="M165.8 56.7L177.1 61.0999L286.9 61.7L278.5 56.7H165.8Z" fill="#A08C6A"/>
<path d="M264.9 133.6L277 138.6L290.1 65.9C290.5 63.4 289.2 60.9999 286.9 60.0999L278.5 56.7L264.9 133.6Z" fill="#86775D"/>
<path d="M277 138.6H264.9L262.8 132.7H265.1L277 138.6Z" fill="#776851"/>
<path d="M209 189.9L93.6 182.2C92.1 182.1 90.9 180.8 90.9 179.3V146.8C90.9 145.4 91.9 144.2 93.2 143.9L148.2 131.8C148.4 131.7 148.7 131.7 148.9 131.7L264.3 134.5L265.4 135.4C265.4 135.4 265.4 135.4 265.4 135.5L265 161.7C265 164.3 263.4 166.7 261 167.7L210.5 189.8C210 189.8 209.5 189.9 209 189.9Z" fill="#A08C6A"/>
<path d="M184.5 131.8H170.5L168.8 134.4H182.9L184.5 131.8Z" fill="#A08C6A"/>
<path d="M155.1 130.2L265.4 130.7L265.1 132.7L154.1 131.8L152.8 130.2" fill="#A08C6A"/>
<path d="M256.1 131.8H242L240.4 134.4H254.4L256.1 131.8Z" fill="#A08C6A"/>
<path d="M159.5 178.4H159.4L133.1 176.9C132.3 176.9 131.6 176.5 131.2 175.8C130.8 175.2 130.6 174.4 130.8 173.7L132.8 166.7L129.3 166.5C127.9 166.4 126.9 165.2 127 163.9C127.1 162.5 128.3 161.5 129.6 161.6L136.2 162C137 162 137.7 162.4 138.1 163.1C138.5 163.7 138.7 164.5 138.5 165.2L136.5 172.2L157.7 173.4L160.1 165.5C160.4 164.4 161.5 163.7 162.7 163.7L170.3 164.2C171.7 164.3 172.7 165.5 172.6 166.9C172.5 168.3 171.3 169.3 169.9 169.2L164.3 168.8L161.9 176.7C161.5 177.7 160.6 178.4 159.5 178.4Z" fill="#505050"/>
<path opacity="0.4" d="M116.6 169.4L104.5 168.6V159.3L116.6 160.1V169.4Z" fill="#736357"/>
<path opacity="0.4" d="M195 173.9L182.9 173V163.7L195 164.5V173.9Z" fill="#736357"/>
<path d="M103.1 183.1C103.5 183.1 103.8 182.9 103.9 182.5C104 182 104 181.5 104 181C104 177.4 101.5 174.3 98.1 173.5C97.3 170.1 94.2 167.6 90.6 167.6V181.7C90.6 182 90.8 182.2 91.1 182.2L103.1 183.1Z" fill="#FED402"/>
<path d="M209.8 151.2L90.9 146V145.1C90.9 144.6 91.2 144.2 91.7 144.1L92.4 143.9L148.5 131.5L263.2 132.5C263.6 132.5 264 132.7 264.3 133C264.9 133.6 265.3 134.5 265.4 135.3L209.8 151.2Z" fill="#B3A388"/>
<path d="M93.5 145.3L209.3 149.3L263.5 134.2L148.5 132.4L93.5 145.3Z" fill="#505050"/>
<path d="M277 57.8L263.9 131L265.4 130.7L278.3 57.8H277Z" fill="#A08C6A"/>
<path d="M209.8 151.2L265.4 135.5L265 161.2C265 164.1 263.3 166.6 260.6 167.8L209.7 190V151.2" fill="#86775D"/>
<path d="M209.8 190.4L196.9 189.3C196.6 189.3 196.4 189 196.4 188.7C196.6 185.3 199.1 182.5 202.3 181.7C203.1 178.3 206.2 175.8 209.8 175.8V190.4Z" fill="#FED402"/>
<path d="M221.4 184.7C219.8 181.5 217.3 181.8 217.3 181.8C216.5 178.4 213.4 175.9 209.8 175.9V190.5L221.3 185.2C221.4 185.1 221.5 184.9 221.4 184.7Z" fill="#EDC20F"/>
<path d="M152.8 130.2H164.9L177.9 56.7H165.8L152.8 130.2Z" fill="#A08C6A"/>
<path d="M155.1 130.2H164.9L177.1 61.1L167.6 57.8L155.1 130.2Z" fill="#776851"/>
<path d="M167.6 57.8H277L276.3 61.6L177.1 61.1L167.6 57.8Z" fill="#776851"/>
<path d="M158.7 96.9C160.5 100.7 161.8 104.7 162.9 108.6C163.2 109.6 163.4 110.7 163.6 111.7C163.8 112.7 164.1 113.8 164.2 114.8C164.3 115.7 163.8 116.5 163 116.6C162.2 116.7 161.4 116.2 161.3 115.4C161.4 115.9 161.5 116.4 161.6 116.9C161.7 117.7 161.2 118.5 160.4 118.6C159.6 118.7 158.8 118.2 158.7 117.4C158.6 116.9 158.5 116.4 158.4 115.9C158.5 116.7 158 117.5 157.2 117.6C156.4 117.7 155.6 117.2 155.5 116.4C155.4 115.4 155.1 114.5 154.9 113.6C154.7 112.7 154.5 111.7 154.2 110.8L158.7 96.9Z" fill="#505050"/>
<path d="M148.5 132.4V147.2L93.5 145.3L148.5 132.4Z" fill="#424242"/>
<path d="M88.1 66.6C87.7 66.4 87.2 66.4 86.5 66.6C84.2 67.2 82.6 69.1999 81.6 70.6999C82.3 71.0999 83.2 71.2999 84.1 71.1999C86.5 71.0999 88.3 69.2999 88.2 67.1999C88.2 66.9999 88.1 66.8 88.1 66.6Z" fill="url(#paint14_radial)"/>
<path d="M184.2 125H170.9L169 130.9H182.3L184.2 125Z" fill="#86775D"/>
<path d="M257.6 126.2L244.3 126L242.3 131.8L255.6 132.1L257.6 126.2Z" fill="#86775D"/>
<path d="M182.1 132.9H168.3C167.7 132.9 167.2 132.4 167.2 131.8C167.2 131.2 167.7 130.7 168.3 130.7H182.1C182.7 130.7 183.2 131.2 183.2 131.8C183.2 132.4 182.7 132.9 182.1 132.9Z" fill="#424242"/>
<path d="M255.3 134.1L241.5 133.9C240.9 133.9 240.4 133.4 240.4 132.8C240.4 132.2 240.9 131.7 241.5 131.7L255.3 131.9C255.9 131.9 256.4 132.4 256.4 133C256.5 133.6 255.9 134.1 255.3 134.1Z" fill="#424242"/>
<path d="M52.2 118.7L52.2999 118.8C52.1999 118.8 52.2 118.7 52.2 118.7Z" fill="#424242"/>
<path d="M52.2 118.7V118.8L52.2999 119C53.2999 120.8 55.4 121.8 57.4 121.2C58 121.1 68.2999 118.4 77.0999 123C72.1999 123.6 66.6999 124.2 57.0999 125.4L57.2 128.8C66.6 125 80.9 126.8 80.9 126.8C81.3 124.4 79.5999 122.8 79.5999 122.8C73.0999 115.6 52.5 118.7 52.2 118.7Z" fill="#424242"/>
<path d="M20.2 81.7C19.1 84.8 18.3 88.1 17.9 91.4C17 98.1 17.8 105.3 20.4 111.5C22.9 117.8 26.8 123.3 31 128.1C31.7 128.9 32.4 129.7 33.2 130.5C33.9 131.3 34.7 132.1 35.4 132.8C36 133.4 37 133.4 37.6 132.8C38.2 132.2 38.1 131.3 37.5 130.7C37.5 130.7 8.59995 103.1 25.9 69C25.2 70.3 24.6 71.5 23.9 72.8C22.5 75.6 21.2 78.6 20.2 81.7Z" fill="#424242"/>
<path d="M177.1 61.1L175.7 68.9L273.4 77.9L276.3 61.6L177.1 61.1Z" fill="#A59379"/>
<path d="M191.4 142.7C191 142.7 190.7 142.5 190.5 142.2C190.2 141.7 190.4 141.1 190.9 140.8C190.9 140.8 191.9 140.3 193.4 139.3C193.9 139 194.5 139.1 194.8 139.6C195.1 140.1 195 140.7 194.5 141C192.9 142 191.9 142.6 191.9 142.6C191.8 142.7 191.6 142.7 191.4 142.7Z" fill="#505050"/>
<path d="M201.4 135.4C201.1 135.4 200.9 135.3 200.7 135.1C200.3 134.7 200.4 134.1 200.8 133.7C202.4 132.3 203.8 130.8 205.1 129.3C205.5 128.9 206.1 128.8 206.5 129.2C206.9 129.6 207 130.2 206.6 130.6C205.2 132.2 203.7 133.7 202.1 135.1C201.9 135.3 201.7 135.4 201.4 135.4ZM211.2 123.3C211 123.3 210.9 123.3 210.7 123.2C210.2 122.9 210 122.3 210.3 121.8C211.3 120 212.1 118.1 212.7 116.2C212.9 115.7 213.4 115.4 214 115.6C214.5 115.8 214.8 116.3 214.6 116.9C214 118.9 213.1 120.9 212.1 122.8C211.9 123.1 211.6 123.3 211.2 123.3ZM215.1 108.3C214.6 108.3 214.1 107.9 214.1 107.3C214.1 105.3 213.9 103.3 213.4 101.3C213.3 100.8 213.6 100.2 214.2 100.1C214.7 100 215.3 100.3 215.4 100.9C215.9 103 216.1 105.2 216.1 107.3C216.1 107.9 215.7 108.3 215.1 108.3ZM211.3 93.3C210.9 93.3 210.6 93.1 210.4 92.7C209.5 91 208.5 89.2 207.3 87.4C207 86.9 207.1 86.3 207.6 86C208.1 85.7 208.7 85.8 209 86.3C210.2 88.1 211.3 90 212.2 91.8C212.4 92.3 212.2 92.9 211.7 93.1C211.6 93.3 211.4 93.3 211.3 93.3ZM202.9 80.1C202.6 80.1 202.2 79.9 202 79.6C200.9 77.7 199.9 75.9 199 74C198.8 73.5 199 72.9 199.5 72.7C200 72.5 200.6 72.7 200.8 73.2C201.7 75 202.7 76.8 203.7 78.6C204 79.1 203.8 79.7 203.4 80C203.3 80.1 203.1 80.1 202.9 80.1ZM196.5 65.9C196.1 65.9 195.7 65.6 195.5 65.2C194.9 63.1 194.4 61 194.1 59C194 58.5 194.4 57.9 194.9 57.9C195.4 57.8 196 58.2 196 58.7C196.3 60.7 196.8 62.7 197.4 64.7C197.6 65.2 197.3 65.8 196.7 65.9C196.7 65.9 196.6 65.9 196.5 65.9ZM194.7 50.4C194.1 50.4 193.7 49.9 193.7 49.3C193.9 47.2 194.2 45 194.7 43C194.8 42.5 195.4 42.1 195.9 42.3C196.4 42.4 196.8 43 196.6 43.5C196.1 45.5 195.8 47.5 195.6 49.5C195.7 50 195.2 50.4 194.7 50.4ZM199.1 35.6C198.9 35.6 198.8 35.6 198.6 35.5C198.1 35.2 197.9 34.6 198.2 34.1C199.2 32.2 200.4 30.4 201.7 28.7C202 28.3 202.7 28.2 203.1 28.5C203.5 28.8 203.6 29.5 203.3 29.9C202.1 31.5 200.9 33.2 200 35C199.8 35.4 199.5 35.6 199.1 35.6Z" fill="#505050"/>
<path d="M209.2 23.7C208.9 23.7 208.6 23.6 208.4 23.3C208.1 22.9 208.2 22.2 208.6 21.9C209.5 21.2 210.3 20.7 211.2 20.2C211.7 19.9 212.3 20.1 212.6 20.6C212.9 21.1 212.7 21.7 212.2 22C211.4 22.5 210.6 23 209.8 23.6C209.7 23.6 209.4 23.7 209.2 23.7Z" fill="#505050"/>
<path d="M223.5 21C226.151 21 228.3 19.3434 228.3 17.3C228.3 15.2565 226.151 13.6 223.5 13.6C220.849 13.6 218.7 15.2565 218.7 17.3C218.7 19.3434 220.849 21 223.5 21Z" fill="#424242"/>
<path opacity="0.5" d="M224.3 16.6C224.3 16.6 217.9 14.3 217.9 5.40002C217.9 5.40002 227.7 6.00002 224.3 16.6Z" fill="#505050"/>
<path opacity="0.5" d="M224.3 16.9C224.3 16.9 217.5 17.4 213.9 9.29998C213.9 9.29998 223.1 5.79998 224.3 16.9Z" fill="#505050"/>
<path d="M105.7 134.6C103 134.6 100.6 134.7 98.7999 134.9V136.7C100.6 136.9 103 137.1 105.7 137.1C107.6 137.1 109.3 137.1 110.8 137V134.9C109.4 134.8 107.6 134.7 105.7 134.6Z" fill="#E6E6E6"/>
<path d="M104.9 131.9C105.3 131.9 105.6 131.9 105.9 131.9C108.3 131.9 109.8 131.8 110.9 131.6V129.8C109.9 130 107.8 130.2 104.9 130.1C101.9 130.1 99.9 129.8 98.9 129.6V131.4C99.2 131.4 99.4 131.5 99.7 131.5C101.1 131.7 102.9 131.8 104.9 131.9Z" fill="#FED402"/>
<path d="M110.9 133.2C109.9 133.4 107.9 133.6 104.9 133.5C101.9 133.5 99.9 133.2 98.9 133V134.8C99.2 134.8 99.4 134.9 99.7 134.9C101.1 135.1 102.9 135.2 104.9 135.2C105.3 135.2 105.6 135.2 105.9 135.2C108.3 135.2 109.8 135.1 110.9 134.9V133.2Z" fill="#FEF000"/>
</g>
<defs>
<linearGradient id="paint0_linear" x1="33.4966" y1="138.374" x2="61.465" y2="147.263" gradientUnits="userSpaceOnUse">
<stop stop-color="#53CEDA"/>
<stop offset="1" stop-color="#28C2D1"/>
</linearGradient>
<linearGradient id="paint1_linear" x1="49.5611" y1="132.278" x2="54.2217" y2="128.79" gradientUnits="userSpaceOnUse">
<stop stop-color="#274B47"/>
<stop offset="1" stop-color="#008575"/>
</linearGradient>
<linearGradient id="paint2_linear" x1="87.7496" y1="16.1858" x2="71.0853" y2="116.293" gradientUnits="userSpaceOnUse">
<stop offset="0.7032" stop-color="#F2F2F2"/>
<stop offset="0.8766" stop-color="#EFEFEF"/>
<stop offset="1" stop-color="#E6E6E6"/>
</linearGradient>
<radialGradient id="paint3_radial" cx="0" cy="0" r="1" gradientUnits="userSpaceOnUse" gradientTransform="translate(58.247 65.5216) rotate(22.0866) scale(11.9017 9.80292)">
<stop stop-color="#F17E32"/>
<stop offset="1" stop-color="#E34C00" stop-opacity="0"/>
</radialGradient>
<radialGradient id="paint4_radial" cx="0" cy="0" r="1" gradientUnits="userSpaceOnUse" gradientTransform="translate(67.7603 53.6551) rotate(9.73033) scale(1.52207 1.95658)">
<stop stop-color="white"/>
<stop offset="1" stop-color="white" stop-opacity="0"/>
</radialGradient>
<radialGradient id="paint5_radial" cx="0" cy="0" r="1" gradientUnits="userSpaceOnUse" gradientTransform="translate(64.9392 56.7551) rotate(9.73037) scale(0.942177 1.21114)">
<stop stop-color="white"/>
<stop offset="1" stop-color="white" stop-opacity="0"/>
</radialGradient>
<radialGradient id="paint6_radial" cx="0" cy="0" r="1" gradientUnits="userSpaceOnUse" gradientTransform="translate(108.828 59.7722) rotate(9.73033) scale(1.52207 1.95658)">
<stop stop-color="white"/>
<stop offset="1" stop-color="white" stop-opacity="0"/>
</radialGradient>
<radialGradient id="paint7_radial" cx="0" cy="0" r="1" gradientUnits="userSpaceOnUse" gradientTransform="translate(106.007 62.872) rotate(9.73036) scale(0.942177 1.21114)">
<stop stop-color="white"/>
<stop offset="1" stop-color="white" stop-opacity="0"/>
</radialGradient>
<radialGradient id="paint8_radial" cx="0" cy="0" r="1" gradientUnits="userSpaceOnUse" gradientTransform="translate(49.0217 49.8799) rotate(9.44662) scale(1.21128)">
<stop stop-color="white"/>
<stop offset="1" stop-color="white" stop-opacity="0"/>
</radialGradient>
<linearGradient id="paint9_linear" x1="67.3143" y1="30.5614" x2="60.379" y2="72.2242" gradientUnits="userSpaceOnUse">
<stop offset="0.0810185" stop-color="#333333" stop-opacity="0.8"/>
<stop offset="0.1489" stop-color="#454545" stop-opacity="0.741"/>
<stop offset="0.3541" stop-color="#767676" stop-opacity="0.5623"/>
<stop offset="0.5483" stop-color="#9D9D9D" stop-opacity="0.3932"/>
<stop offset="0.7264" stop-color="#B8B8B8" stop-opacity="0.2382"/>
<stop offset="0.8826" stop-color="#C9C9C9" stop-opacity="0.1022"/>
<stop offset="1" stop-color="#CFCFCF" stop-opacity="0"/>
</linearGradient>
<linearGradient id="paint10_linear" x1="121.068" y1="42.8436" x2="102.963" y2="75.9468" gradientUnits="userSpaceOnUse">
<stop offset="0.0810185" stop-color="#333333" stop-opacity="0.8"/>
<stop offset="0.1489" stop-color="#454545" stop-opacity="0.741"/>
<stop offset="0.3541" stop-color="#767676" stop-opacity="0.5623"/>
<stop offset="0.5483" stop-color="#9D9D9D" stop-opacity="0.3932"/>
<stop offset="0.7264" stop-color="#B8B8B8" stop-opacity="0.2382"/>
<stop offset="0.8826" stop-color="#C9C9C9" stop-opacity="0.1022"/>
<stop offset="1" stop-color="#CFCFCF" stop-opacity="0"/>
</linearGradient>
<radialGradient id="paint11_radial" cx="0" cy="0" r="1" gradientUnits="userSpaceOnUse" gradientTransform="translate(109.164 77.1164) rotate(176.809) scale(11.9013 9.80332)">
<stop stop-color="#F17E32"/>
<stop offset="1" stop-color="#E34C00" stop-opacity="0"/>
</radialGradient>
<linearGradient id="paint12_linear" x1="95.7214" y1="135.761" x2="115.719" y2="136.033" gradientUnits="userSpaceOnUse">
<stop stop-color="#274B47"/>
<stop offset="1" stop-color="#008575"/>
</linearGradient>
<linearGradient id="paint13_linear" x1="110.716" y1="136.276" x2="110.506" y2="151.66" gradientUnits="userSpaceOnUse">
<stop stop-color="#53CEDA"/>
<stop offset="1" stop-color="#28C2D1"/>
</linearGradient>
<radialGradient id="paint14_radial" cx="0" cy="0" r="1" gradientUnits="userSpaceOnUse" gradientTransform="translate(84.8728 68.8674) scale(2.8843)">
<stop offset="0.00558036" stop-color="#FF9149"/>
<stop offset="0.4768" stop-color="#FE8F47"/>
<stop offset="0.6869" stop-color="#FC8841"/>
<stop offset="0.8445" stop-color="#F87B36"/>
<stop offset="0.976" stop-color="#F26926"/>
<stop offset="1" stop-color="#F16522"/>
</radialGradient>
<clipPath id="clip0">
<rect width="314.9" height="210.4" fill="white"/>
</clipPath>
</defs>
</svg>
