<?xml version="1.0" encoding="UTF-8"?>
<!DOCTYPE svg  PUBLIC '-//W3C//DTD SVG 1.1//EN'  'http://www.w3.org/Graphics/SVG/1.1/DTD/svg11.dtd'>
<svg enable-background="new 0 0 50 60" version="1.1" viewBox="0 0 50 60" xml:space="preserve" xmlns="http://www.w3.org/2000/svg">
		<path d="m21.486 42.999 15.459-8.899c1.239-0.722 2.005-2.051 2.005-3.47v-17.757c0-1.42-0.767-2.749-2.005-3.492l-15.459-8.857c-1.239-0.699-2.783-0.699-4.022 0l-15.424 8.856c-1.263 0.744-2.04 2.073-2.04 3.493v17.757c0 1.419 0.777 2.748 2.006 3.47l15.458 8.899c1.24 0.723 2.784 0.723 4.022 0z" fill="#28BAA2"/>
		<path d="m26.14 23.756-1.712-1.374-4.349 3.312 5.464 5.431-1.453 1.329-15.628-14.961 9.104-4.62 2.017 1.713 4.293-2.344 6.568 8.045-4.304 3.469z" fill="#fff"/>
</svg>
